<svg xmlns="http://www.w3.org/2000/svg" width="100" height="756" viewbox="0 0 100 756" preserveAspectRatio="none"><rect x="0" y="0" width="100%" height="100%" fill="rgb(214, 213, 208)" /><path d="M0 58 C 17.5 0, 33 0, 50 58 S 83 116, 100 58 S 133 0, 150, 58" fill="none" stroke="#ddd" style="opacity:0.02;stroke-width:21px;" transform="translate(-25, -87)" /><path d="M0 58 C 17.5 0, 33 0, 50 58 S 83 116, 100 58 S 133 0, 150, 58" fill="none" stroke="#ddd" style="opacity:0.02;stroke-width:21px;" transform="translate(-25, 669)" /><path d="M0 58 C 17.5 0, 33 0, 50 58 S 83 116, 100 58 S 133 0, 150, 58" fill="none" stroke="#ddd" style="opacity:0.072;stroke-width:21px;" transform="translate(-25, -66)" /><path d="M0 58 C 17.5 0, 33 0, 50 58 S 83 116, 100 58 S 133 0, 150, 58" fill="none" stroke="#ddd" style="opacity:0.072;stroke-width:21px;" transform="translate(-25, 690)" /><path d="M0 58 C 17.5 0, 33 0, 50 58 S 83 116, 100 58 S 133 0, 150, 58" fill="none" stroke="#ddd" style="opacity:0.10666666666667;stroke-width:21px;" transform="translate(-25, -45)" /><path d="M0 58 C 17.5 0, 33 0, 50 58 S 83 116, 100 58 S 133 0, 150, 58" fill="none" stroke="#ddd" style="opacity:0.10666666666667;stroke-width:21px;" transform="translate(-25, 711)" /><path d="M0 58 C 17.5 0, 33 0, 50 58 S 83 116, 100 58 S 133 0, 150, 58" fill="none" stroke="#ddd" style="opacity:0.14133333333333;stroke-width:21px;" transform="translate(-25, -24)" /><path d="M0 58 C 17.5 0, 33 0, 50 58 S 83 116, 100 58 S 133 0, 150, 58" fill="none" stroke="#ddd" style="opacity:0.14133333333333;stroke-width:21px;" transform="translate(-25, 732)" /><path d="M0 58 C 17.5 0, 33 0, 50 58 S 83 116, 100 58 S 133 0, 150, 58" fill="none" stroke="#ddd" style="opacity:0.054666666666667;stroke-width:21px;" transform="translate(-25, -3)" /><path d="M0 58 C 17.5 0, 33 0, 50 58 S 83 116, 100 58 S 133 0, 150, 58" fill="none" stroke="#ddd" style="opacity:0.054666666666667;stroke-width:21px;" transform="translate(-25, 753)" /><path d="M0 58 C 17.5 0, 33 0, 50 58 S 83 116, 100 58 S 133 0, 150, 58" fill="none" stroke="#ddd" style="opacity:0.089333333333333;stroke-width:21px;" transform="translate(-25, 18)" /><path d="M0 58 C 17.5 0, 33 0, 50 58 S 83 116, 100 58 S 133 0, 150, 58" fill="none" stroke="#ddd" style="opacity:0.089333333333333;stroke-width:21px;" transform="translate(-25, 774)" /><path d="M0 58 C 17.5 0, 33 0, 50 58 S 83 116, 100 58 S 133 0, 150, 58" fill="none" stroke="#222" style="opacity:0.15;stroke-width:21px;" transform="translate(-25, 39)" /><path d="M0 58 C 17.5 0, 33 0, 50 58 S 83 116, 100 58 S 133 0, 150, 58" fill="none" stroke="#222" style="opacity:0.15;stroke-width:21px;" transform="translate(-25, 795)" /><path d="M0 58 C 17.5 0, 33 0, 50 58 S 83 116, 100 58 S 133 0, 150, 58" fill="none" stroke="#222" style="opacity:0.098;stroke-width:21px;" transform="translate(-25, 60)" /><path d="M0 58 C 17.5 0, 33 0, 50 58 S 83 116, 100 58 S 133 0, 150, 58" fill="none" stroke="#222" style="opacity:0.098;stroke-width:21px;" transform="translate(-25, 816)" /><path d="M0 58 C 17.5 0, 33 0, 50 58 S 83 116, 100 58 S 133 0, 150, 58" fill="none" stroke="#ddd" style="opacity:0.054666666666667;stroke-width:21px;" transform="translate(-25, 81)" /><path d="M0 58 C 17.5 0, 33 0, 50 58 S 83 116, 100 58 S 133 0, 150, 58" fill="none" stroke="#ddd" style="opacity:0.054666666666667;stroke-width:21px;" transform="translate(-25, 837)" /><path d="M0 58 C 17.5 0, 33 0, 50 58 S 83 116, 100 58 S 133 0, 150, 58" fill="none" stroke="#ddd" style="opacity:0.10666666666667;stroke-width:21px;" transform="translate(-25, 102)" /><path d="M0 58 C 17.5 0, 33 0, 50 58 S 83 116, 100 58 S 133 0, 150, 58" fill="none" stroke="#ddd" style="opacity:0.10666666666667;stroke-width:21px;" transform="translate(-25, 858)" /><path d="M0 58 C 17.5 0, 33 0, 50 58 S 83 116, 100 58 S 133 0, 150, 58" fill="none" stroke="#222" style="opacity:0.046;stroke-width:21px;" transform="translate(-25, 123)" /><path d="M0 58 C 17.5 0, 33 0, 50 58 S 83 116, 100 58 S 133 0, 150, 58" fill="none" stroke="#222" style="opacity:0.046;stroke-width:21px;" transform="translate(-25, 879)" /><path d="M0 58 C 17.5 0, 33 0, 50 58 S 83 116, 100 58 S 133 0, 150, 58" fill="none" stroke="#ddd" style="opacity:0.02;stroke-width:21px;" transform="translate(-25, 144)" /><path d="M0 58 C 17.5 0, 33 0, 50 58 S 83 116, 100 58 S 133 0, 150, 58" fill="none" stroke="#ddd" style="opacity:0.02;stroke-width:21px;" transform="translate(-25, 900)" /><path d="M0 58 C 17.5 0, 33 0, 50 58 S 83 116, 100 58 S 133 0, 150, 58" fill="none" stroke="#ddd" style="opacity:0.072;stroke-width:21px;" transform="translate(-25, 165)" /><path d="M0 58 C 17.5 0, 33 0, 50 58 S 83 116, 100 58 S 133 0, 150, 58" fill="none" stroke="#ddd" style="opacity:0.072;stroke-width:21px;" transform="translate(-25, 921)" /><path d="M0 58 C 17.5 0, 33 0, 50 58 S 83 116, 100 58 S 133 0, 150, 58" fill="none" stroke="#ddd" style="opacity:0.124;stroke-width:21px;" transform="translate(-25, 186)" /><path d="M0 58 C 17.5 0, 33 0, 50 58 S 83 116, 100 58 S 133 0, 150, 58" fill="none" stroke="#ddd" style="opacity:0.124;stroke-width:21px;" transform="translate(-25, 942)" /><path d="M0 58 C 17.5 0, 33 0, 50 58 S 83 116, 100 58 S 133 0, 150, 58" fill="none" stroke="#222" style="opacity:0.098;stroke-width:21px;" transform="translate(-25, 207)" /><path d="M0 58 C 17.5 0, 33 0, 50 58 S 83 116, 100 58 S 133 0, 150, 58" fill="none" stroke="#222" style="opacity:0.098;stroke-width:21px;" transform="translate(-25, 963)" /><path d="M0 58 C 17.5 0, 33 0, 50 58 S 83 116, 100 58 S 133 0, 150, 58" fill="none" stroke="#222" style="opacity:0.080666666666667;stroke-width:21px;" transform="translate(-25, 228)" /><path d="M0 58 C 17.5 0, 33 0, 50 58 S 83 116, 100 58 S 133 0, 150, 58" fill="none" stroke="#222" style="opacity:0.080666666666667;stroke-width:21px;" transform="translate(-25, 984)" /><path d="M0 58 C 17.5 0, 33 0, 50 58 S 83 116, 100 58 S 133 0, 150, 58" fill="none" stroke="#ddd" style="opacity:0.054666666666667;stroke-width:21px;" transform="translate(-25, 249)" /><path d="M0 58 C 17.5 0, 33 0, 50 58 S 83 116, 100 58 S 133 0, 150, 58" fill="none" stroke="#ddd" style="opacity:0.054666666666667;stroke-width:21px;" transform="translate(-25, 1005)" /><path d="M0 58 C 17.5 0, 33 0, 50 58 S 83 116, 100 58 S 133 0, 150, 58" fill="none" stroke="#ddd" style="opacity:0.054666666666667;stroke-width:21px;" transform="translate(-25, 270)" /><path d="M0 58 C 17.5 0, 33 0, 50 58 S 83 116, 100 58 S 133 0, 150, 58" fill="none" stroke="#ddd" style="opacity:0.054666666666667;stroke-width:21px;" transform="translate(-25, 1026)" /><path d="M0 58 C 17.5 0, 33 0, 50 58 S 83 116, 100 58 S 133 0, 150, 58" fill="none" stroke="#ddd" style="opacity:0.089333333333333;stroke-width:21px;" transform="translate(-25, 291)" /><path d="M0 58 C 17.5 0, 33 0, 50 58 S 83 116, 100 58 S 133 0, 150, 58" fill="none" stroke="#ddd" style="opacity:0.089333333333333;stroke-width:21px;" transform="translate(-25, 1047)" /><path d="M0 58 C 17.5 0, 33 0, 50 58 S 83 116, 100 58 S 133 0, 150, 58" fill="none" stroke="#222" style="opacity:0.15;stroke-width:21px;" transform="translate(-25, 312)" /><path d="M0 58 C 17.5 0, 33 0, 50 58 S 83 116, 100 58 S 133 0, 150, 58" fill="none" stroke="#222" style="opacity:0.15;stroke-width:21px;" transform="translate(-25, 1068)" /><path d="M0 58 C 17.5 0, 33 0, 50 58 S 83 116, 100 58 S 133 0, 150, 58" fill="none" stroke="#ddd" style="opacity:0.054666666666667;stroke-width:21px;" transform="translate(-25, 333)" /><path d="M0 58 C 17.5 0, 33 0, 50 58 S 83 116, 100 58 S 133 0, 150, 58" fill="none" stroke="#ddd" style="opacity:0.054666666666667;stroke-width:21px;" transform="translate(-25, 1089)" /><path d="M0 58 C 17.5 0, 33 0, 50 58 S 83 116, 100 58 S 133 0, 150, 58" fill="none" stroke="#ddd" style="opacity:0.10666666666667;stroke-width:21px;" transform="translate(-25, 354)" /><path d="M0 58 C 17.5 0, 33 0, 50 58 S 83 116, 100 58 S 133 0, 150, 58" fill="none" stroke="#ddd" style="opacity:0.10666666666667;stroke-width:21px;" transform="translate(-25, 1110)" /><path d="M0 58 C 17.5 0, 33 0, 50 58 S 83 116, 100 58 S 133 0, 150, 58" fill="none" stroke="#222" style="opacity:0.080666666666667;stroke-width:21px;" transform="translate(-25, 375)" /><path d="M0 58 C 17.5 0, 33 0, 50 58 S 83 116, 100 58 S 133 0, 150, 58" fill="none" stroke="#222" style="opacity:0.080666666666667;stroke-width:21px;" transform="translate(-25, 1131)" /><path d="M0 58 C 17.5 0, 33 0, 50 58 S 83 116, 100 58 S 133 0, 150, 58" fill="none" stroke="#222" style="opacity:0.028666666666667;stroke-width:21px;" transform="translate(-25, 396)" /><path d="M0 58 C 17.5 0, 33 0, 50 58 S 83 116, 100 58 S 133 0, 150, 58" fill="none" stroke="#222" style="opacity:0.028666666666667;stroke-width:21px;" transform="translate(-25, 1152)" /><path d="M0 58 C 17.5 0, 33 0, 50 58 S 83 116, 100 58 S 133 0, 150, 58" fill="none" stroke="#ddd" style="opacity:0.037333333333333;stroke-width:21px;" transform="translate(-25, 417)" /><path d="M0 58 C 17.5 0, 33 0, 50 58 S 83 116, 100 58 S 133 0, 150, 58" fill="none" stroke="#ddd" style="opacity:0.037333333333333;stroke-width:21px;" transform="translate(-25, 1173)" /><path d="M0 58 C 17.5 0, 33 0, 50 58 S 83 116, 100 58 S 133 0, 150, 58" fill="none" stroke="#ddd" style="opacity:0.037333333333333;stroke-width:21px;" transform="translate(-25, 438)" /><path d="M0 58 C 17.5 0, 33 0, 50 58 S 83 116, 100 58 S 133 0, 150, 58" fill="none" stroke="#ddd" style="opacity:0.037333333333333;stroke-width:21px;" transform="translate(-25, 1194)" /><path d="M0 58 C 17.5 0, 33 0, 50 58 S 83 116, 100 58 S 133 0, 150, 58" fill="none" stroke="#ddd" style="opacity:0.10666666666667;stroke-width:21px;" transform="translate(-25, 459)" /><path d="M0 58 C 17.5 0, 33 0, 50 58 S 83 116, 100 58 S 133 0, 150, 58" fill="none" stroke="#ddd" style="opacity:0.10666666666667;stroke-width:21px;" transform="translate(-25, 1215)" /><path d="M0 58 C 17.5 0, 33 0, 50 58 S 83 116, 100 58 S 133 0, 150, 58" fill="none" stroke="#ddd" style="opacity:0.124;stroke-width:21px;" transform="translate(-25, 480)" /><path d="M0 58 C 17.5 0, 33 0, 50 58 S 83 116, 100 58 S 133 0, 150, 58" fill="none" stroke="#ddd" style="opacity:0.124;stroke-width:21px;" transform="translate(-25, 1236)" /><path d="M0 58 C 17.5 0, 33 0, 50 58 S 83 116, 100 58 S 133 0, 150, 58" fill="none" stroke="#222" style="opacity:0.13266666666667;stroke-width:21px;" transform="translate(-25, 501)" /><path d="M0 58 C 17.5 0, 33 0, 50 58 S 83 116, 100 58 S 133 0, 150, 58" fill="none" stroke="#222" style="opacity:0.13266666666667;stroke-width:21px;" transform="translate(-25, 1257)" /><path d="M0 58 C 17.5 0, 33 0, 50 58 S 83 116, 100 58 S 133 0, 150, 58" fill="none" stroke="#ddd" style="opacity:0.10666666666667;stroke-width:21px;" transform="translate(-25, 522)" /><path d="M0 58 C 17.5 0, 33 0, 50 58 S 83 116, 100 58 S 133 0, 150, 58" fill="none" stroke="#ddd" style="opacity:0.10666666666667;stroke-width:21px;" transform="translate(-25, 1278)" /><path d="M0 58 C 17.5 0, 33 0, 50 58 S 83 116, 100 58 S 133 0, 150, 58" fill="none" stroke="#ddd" style="opacity:0.072;stroke-width:21px;" transform="translate(-25, 543)" /><path d="M0 58 C 17.5 0, 33 0, 50 58 S 83 116, 100 58 S 133 0, 150, 58" fill="none" stroke="#ddd" style="opacity:0.072;stroke-width:21px;" transform="translate(-25, 1299)" /><path d="M0 58 C 17.5 0, 33 0, 50 58 S 83 116, 100 58 S 133 0, 150, 58" fill="none" stroke="#222" style="opacity:0.11533333333333;stroke-width:21px;" transform="translate(-25, 564)" /><path d="M0 58 C 17.5 0, 33 0, 50 58 S 83 116, 100 58 S 133 0, 150, 58" fill="none" stroke="#222" style="opacity:0.11533333333333;stroke-width:21px;" transform="translate(-25, 1320)" /><path d="M0 58 C 17.5 0, 33 0, 50 58 S 83 116, 100 58 S 133 0, 150, 58" fill="none" stroke="#222" style="opacity:0.13266666666667;stroke-width:21px;" transform="translate(-25, 585)" /><path d="M0 58 C 17.5 0, 33 0, 50 58 S 83 116, 100 58 S 133 0, 150, 58" fill="none" stroke="#222" style="opacity:0.13266666666667;stroke-width:21px;" transform="translate(-25, 1341)" /><path d="M0 58 C 17.5 0, 33 0, 50 58 S 83 116, 100 58 S 133 0, 150, 58" fill="none" stroke="#ddd" style="opacity:0.14133333333333;stroke-width:21px;" transform="translate(-25, 606)" /><path d="M0 58 C 17.5 0, 33 0, 50 58 S 83 116, 100 58 S 133 0, 150, 58" fill="none" stroke="#ddd" style="opacity:0.14133333333333;stroke-width:21px;" transform="translate(-25, 1362)" /><path d="M0 58 C 17.5 0, 33 0, 50 58 S 83 116, 100 58 S 133 0, 150, 58" fill="none" stroke="#ddd" style="opacity:0.14133333333333;stroke-width:21px;" transform="translate(-25, 627)" /><path d="M0 58 C 17.5 0, 33 0, 50 58 S 83 116, 100 58 S 133 0, 150, 58" fill="none" stroke="#ddd" style="opacity:0.14133333333333;stroke-width:21px;" transform="translate(-25, 1383)" /><path d="M0 58 C 17.5 0, 33 0, 50 58 S 83 116, 100 58 S 133 0, 150, 58" fill="none" stroke="#222" style="opacity:0.080666666666667;stroke-width:21px;" transform="translate(-25, 648)" /><path d="M0 58 C 17.5 0, 33 0, 50 58 S 83 116, 100 58 S 133 0, 150, 58" fill="none" stroke="#222" style="opacity:0.080666666666667;stroke-width:21px;" transform="translate(-25, 1404)" /></svg>